<?xml version="1.0" encoding="UTF-8" standalone="no"?>
<!-- Created with Inkscape (http://www.inkscape.org/) -->

<svg
   width="151.91272mm"
   height="147.29973mm"
   viewBox="0 0 151.91272 147.29973"
   version="1.1"
   id="svg34710"
   xmlns="http://www.w3.org/2000/svg"
   xmlns:svg="http://www.w3.org/2000/svg">
  <defs
     id="defs34707" />
  <g
     id="layer1"
     transform="translate(-18.43421,-55.86897)">
    <path
       id="path46557"
       style="fill:#fefeeb;fill-opacity:1;stroke:none;stroke-width:0.297;stroke-linecap:round"
       d="m 165.24233,55.869475 c -0.5145,-0.0074 -1.0776,0.06628 -1.6893,0.233577 H 21.184975 c -4.833436,0.967815 -1.448038,7.670801 -2.676322,11.365198 -0.500573,3.47115 1.711974,5.946491 1.270724,9.436117 4.138841,5.266912 -1.368462,10.481337 -1.270724,15.822806 0.228672,3.850813 -0.599773,7.865107 0.728638,11.537797 -1.528895,6.39508 1.219062,13.31557 -0.728638,19.97553 -0.07551,2.92881 -0.23412,5.83463 1.371493,8.42842 0.985128,3.8825 -2.269011,7.10587 0.276985,10.02523 -0.962496,3.62471 -0.839558,6.99339 -0.886767,10.70684 0.921877,5.36492 -0.0888,10.50964 -0.722954,16.8646 -0.463779,4.64716 0.606971,11.75328 1.23455,16.23054 -0.0691,3.02139 -1.049047,14.89426 -0.251664,15.49362 0.73521,0.55264 24.298815,0.69833 41.96488,0.98754 37.793787,0.61872 96.232284,-0.35276 108.050774,-1.62212 0,0 -0.54565,-6.0833 0.68264,-9.7777 0.50057,-3.47115 -0.77664,-9.50131 -0.33538,-12.99094 0.16419,-8.26032 0.43312,-6.92652 0.33538,-12.26798 -0.21069,-3.54812 0.472,-7.23439 -0.45785,-10.66499 0.14691,-0.12799 0.2692,-0.31216 0.10593,-0.55707 -0.11953,-0.17929 -0.2458,-0.26691 -0.37568,-0.31987 1.52671,-6.39393 -1.21968,-13.31288 0.7276,-19.97139 0.0253,-0.98137 -0.36037,-2.04982 -0.93896,-3.13366 0.14556,-0.47769 0.23217,-0.94698 0.20206,-1.39785 -0.71184,-5.38698 0.4237,-7.26711 -0.28009,-12.12846 1.57076,-4.33105 0.20038,-8.18216 0.25528,-12.50053 -0.525,-4.96804 0.0888,-10.509639 0.72295,-16.864603 0.46378,-4.647154 -0.60697,-11.753281 -1.23455,-16.230533 0.0691,-3.021401 1.01572,-6.074562 -0.0129,-8.879045 1.12362,-3.724601 -0.0985,-7.749552 -3.70003,-7.801074 z" />
    <ellipse
       style="fill:#9f9f9f;fill-opacity:1;stroke:none;stroke-width:0.11087;stroke-linecap:round"
       id="ellipse39373"
       cx="28.41309"
       cy="64.006767"
       rx="3.3980041"
       ry="3.1811097" />
    <path
       style="fill:#aca074;fill-opacity:0.222798;stroke:none;stroke-width:0.297;stroke-linecap:round"
       d="m 30.682541,61.926348 c 2.347911,-0.16274 6.588973,-0.43188 7.771242,-0.31128 -2.401971,0.467532 -5.457457,0.209163 -6.836501,2.705585 -1.115285,2.873138 -2.602095,-2.447514 -0.489717,1.45532 4.762208,8.131051 1.764617,4.848343 -0.605521,2.268688 -1.491883,-2.119765 -5.897832,1.56507 -7.281577,1.960131 5.874573,-6.467578 -0.901917,-5.758485 -2.593298,-6.489159 4.632845,0.115655 5.903843,-2.2497 8.506808,-1.948198 0.528123,-0.03276 1.084718,0.05278 1.528564,0.358872 z"
       id="path39440" />
    <ellipse
       style="fill:#d2d2d2;fill-opacity:1;stroke:none;stroke-width:0.11087;stroke-linecap:round"
       id="path39369"
       cx="28.41309"
       cy="63.477604"
       rx="3.3980041"
       ry="3.1811097" />
    <path
       style="fill:#aca074;fill-opacity:0.222798;stroke:none;stroke-width:0.297;stroke-linecap:round"
       d="m 146.44688,60.589583 c 1.67569,0 3.35138,0 5.02708,0 0.34654,0 0.86983,0.106931 1.19062,0 0.67751,-0.225836 -0.88821,-0.132292 0.52917,-0.132292 0.50433,0 1.90381,0.159147 2.38125,0 0.6521,-0.217366 1.41584,-0.132292 2.11667,-0.132292 0.6018,0 3.27063,0.144513 3.70416,0 0.0592,-0.01971 0.0765,-0.104402 0.1323,-0.132291 0.41937,-0.209688 1.12226,0.116308 1.5875,0 0.35648,-0.08912 0.75663,-0.246026 1.05833,-0.396875 0.25105,-0.125529 0.9998,0.190822 1.19062,0 0.22049,-0.220486 -0.48507,-0.132292 0.26459,-0.132292 0.13944,0 -0.26459,0.08819 -0.39688,0.132292 -0.099,0.03301 -0.77859,0.366553 -0.79375,0.396875 -0.19843,0.396875 0.44097,-0.220486 -0.26458,0.132291 -0.0789,0.03944 0.0394,0.185701 0,0.264584 -0.0794,0.15875 -0.3175,0.238125 -0.39688,0.396875 -0.0394,0.07888 0.0624,0.202221 0,0.264583 -0.008,0.0076 -0.38668,0.259487 -0.39687,0.264583 -0.34752,0.173757 0,0.406003 0,0.529167 0,0.08548 -0.0315,0.497636 0,0.529167 0.0986,0.0986 0.28085,0.05494 0.39687,0.132291 0.0367,0.02447 -0.0312,0.101111 0,0.132292 0.0697,0.06972 0.19486,0.06257 0.26459,0.132292 0.0312,0.03118 0,0.08819 0,0.132291 0.0441,0.0441 0.0804,0.0977 0.13229,0.132292 0.50158,0.334383 0.72246,0.457877 1.19062,0.926042 0.0993,0.09931 0.52917,0.407524 0.52917,0.396875 0,-0.132292 -0.26458,0 -0.39687,0 -0.26597,0 -0.67192,0.08471 -0.92605,0 -0.45603,-0.152014 -0.098,-0.132292 -0.39687,-0.132292 -0.0545,0 -0.36186,-0.03502 -0.39688,0 -0.0312,0.03118 0.0312,0.10111 0,0.132292 -0.0624,0.06236 -0.20222,-0.06236 -0.26458,0 -0.0312,0.03118 0.0312,0.10111 0,0.132291 -0.0312,0.03118 -0.0928,-0.01971 -0.13229,0 -0.11597,0.05799 -0.58896,0.420418 -0.66146,0.529167 -0.1952,0.292793 -0.0536,0.300286 -0.39687,0.529167 -0.0979,0.06526 -0.1861,0.0538 -0.26459,0.132291 -0.0624,0.06236 0.0279,0.180914 0,0.264583 -0.0939,0.281655 -0.1707,0.512096 -0.26458,0.79375 -0.05,0.149895 0.0701,0.388983 0,0.529167 -0.14673,0.293457 -0.29412,0.588232 -0.39688,0.79375 -0.0558,0.111559 -0.2088,0.153025 -0.26458,0.264583 -0.0197,0.03944 0.0394,0.11257 0,0.132292 -0.0789,0.03944 -0.20222,-0.06236 -0.26458,0 -0.0624,0.06236 0.0489,0.191201 0,0.264583 -0.0245,0.0368 -0.35106,0.287491 -0.39688,0.264584 -0.37772,-0.18886 -0.50349,-1.954797 -0.39687,-2.38125 0.0647,-0.258636 0.22806,-0.241856 0.13229,-0.529167 -0.079,-0.236979 -0.33673,-0.601313 -0.52917,-0.79375 -0.10178,-0.101788 -0.39336,-0.09834 -0.52916,-0.132291 -1.02681,-0.256702 -2.28046,-0.141743 -3.175,0.529166 -0.0998,0.07484 -0.15303,0.208804 -0.26459,0.264583 -0.0789,0.03944 -0.18895,-0.04538 -0.26458,0 -0.14703,0.08822 -0.81696,0.70788 -0.92604,0.926042 -0.0197,0.03944 0.0312,0.101111 0,0.132292 -0.0312,0.03118 -0.13229,-0.0441 -0.13229,0 0,0.124724 0.22514,-0.146259 0.26458,-0.264584 0.0139,-0.04183 0,-0.08819 0,-0.132291 0.0882,-0.0441 0.20542,-0.05341 0.26458,-0.132292 0.48838,-0.651169 -0.24953,-0.176657 0.39688,-0.661458 0.0789,-0.05916 0.19486,-0.06257 0.26458,-0.132292 0.15671,-0.15671 0.26302,-0.482989 0.39688,-0.661458 0.11225,-0.149672 0.3515,-0.215374 0.39687,-0.396875 0.0321,-0.128342 -0.0521,-0.275281 0,-0.396875 0.0868,-0.20266 0.28344,-0.340101 0.39688,-0.529167 0.0454,-0.07563 -0.0279,-0.180914 0,-0.264583 0.20125,-0.603771 0.29598,-0.800452 0.13229,-1.455208 -0.0107,-0.04278 0.0312,-0.101111 0,-0.132292 -0.56271,-0.562708 -2.27825,-0.77315 -3.04271,-0.926042 -0.37973,-0.07595 -0.81618,0.09361 -1.19063,0 -0.0957,-0.02392 -0.16789,-0.112953 -0.26458,-0.132291 -0.44535,-0.08907 -1.02576,0.143147 -1.45521,0 -0.0592,-0.01971 -0.0731,-0.112573 -0.13229,-0.132292 -0.4861,-0.162034 -2.1147,0.199422 -2.51354,0 -0.0394,-0.01971 0.0394,-0.112572 0,-0.132292 -0.12921,-0.06461 -0.64729,0 -0.79375,0 -0.42851,0 -0.56276,-0.03318 -1.05833,-0.132291 z"
       id="path41087" />
    <ellipse
       style="fill:#a4a4a4;fill-opacity:1;stroke:none;stroke-width:0.11087;stroke-linecap:round"
       id="ellipse39375"
       cx="160.28456"
       cy="63.188408"
       rx="3.3980041"
       ry="3.1811097" />
    <ellipse
       style="fill:#d2d2d2;fill-opacity:1;stroke:none;stroke-width:0.11087;stroke-linecap:round"
       id="ellipse39371"
       cx="160.28456"
       cy="62.659245"
       rx="3.3980041"
       ry="3.1811097" />
    <path
       style="fill:#aca074;fill-opacity:0.0932642;stroke:none;stroke-width:0.297;stroke-linecap:round"
       d="m 20.769791,143.93333 c 16.073621,0.77797 32.197798,0.63387 48.288838,0.22477 19.766472,-0.16783 39.532601,-1.17887 59.264291,-2.07685 -14.38294,-0.14901 -28.755136,2.2035 -43.113517,0.37477 -10.280837,0.0326 -20.539631,-0.26985 -30.752097,-1.56086 -10.101057,0.18513 -20.294689,-1.41302 -30.077489,-3.05476 -5.235886,-1.35517 7.513646,5.18445 -1.904964,3.88634 -0.877099,0.31573 -1.992075,1.08677 -1.705062,2.20659 z"
       id="path40204" />
    <path
       style="fill:#aca074;fill-opacity:0.0932642;stroke:none;stroke-width:0.297;stroke-linecap:round"
       d="m 166.55521,121.44375 c -13.31823,-0.003 -26.66935,1.31333 -39.95209,0 4.48944,0.21218 17.51685,-0.33174 16.85639,-1.50973 -18.18072,-0.2909 -36.39188,0.368 -54.559511,-0.6069 15.348161,-1.16578 30.763451,-0.1849 46.071151,-1.82701 7.10954,0.0694 14.31562,-1.37418 21.32148,-1.09605 1.0896,4.71106 6.47666,2.51553 9.8657,4.51056"
       id="path40206" />
    <path
       id="path41021"
       style="fill:#aca074;fill-opacity:0.0932642;stroke:none;stroke-width:0.297;stroke-linecap:round"
       d="m 169.82168,90.902462 c 0.0724,-0.311063 0.1434,-0.622322 0.19998,-0.93586 0.0355,-0.19685 0.068,-0.394462 0.0961,-0.592212 0.0281,-0.197751 0.052,-0.395686 0.0718,-0.594279 0.029,-0.290448 0.0523,-0.590755 0.0698,-0.89917 0.0175,-0.308416 0.0292,-0.62488 0.0362,-0.94878 0.007,-0.323899 0.009,-0.654771 0.006,-0.99167 -8.9e-4,-0.113374 -0.005,-0.231058 -0.007,-0.345716 -4.11203,-3.711436 -10.86889,5.578676 -17.05632,4.05505 -5.00197,0.708948 -16.12428,-0.954608 -17.59944,0.501778 8.257,2.622192 16.93474,1.821703 25.38346,1.090373 3.06901,-0.05982 6.04306,0.631612 8.79947,-0.339514 z" />
    <path
       style="fill:#aca074;fill-opacity:0.0932642;stroke:none;stroke-width:0.297;stroke-linecap:round"
       d="m 110.99271,89.561457 c -7.05481,0.164634 -14.134754,-0.219428 -21.166669,0.529167 6.135592,1.263779 17.602489,2.014838 21.166669,-0.529167 z"
       id="path40210" />
    <path
       id="path40212"
       style="fill:#aca074;fill-opacity:0.0932642;stroke:none;stroke-width:0.297;stroke-linecap:round"
       d="m 20.77806,78.565747 c 1.208875,2.791129 0.157351,5.573079 -0.884184,8.372099 0.44257,-0.133665 0.942623,-0.29582 1.512569,-0.49196 8.091182,-4.002421 17.202588,-2.968411 25.82168,-4.689636 -8.774883,-0.578582 -18.129128,4.9e-5 -26.450065,-3.190503 z" />
    <g
       id="g43347"
       style="stroke:#2470b7;stroke-opacity:0.0518135"
       transform="translate(0,8.9958336)">
      <path
         style="fill:none;fill-opacity:0.222798;stroke:#2470b7;stroke-width:0.497;stroke-linecap:round;stroke-dasharray:none;stroke-opacity:0.0518135"
         d="M 27.314945,76.145087 H 159.96081"
         id="path41143" />
      <path
         style="fill:none;fill-opacity:0.222798;stroke:#2470b7;stroke-width:0.497;stroke-linecap:round;stroke-dasharray:none;stroke-opacity:0.0518135"
         d="M 27.314945,82.880279 H 159.96081"
         id="path43305" />
      <path
         style="fill:none;fill-opacity:0.222798;stroke:#2470b7;stroke-width:0.497;stroke-linecap:round;stroke-dasharray:none;stroke-opacity:0.0518135"
         d="M 27.314945,88.867116 H 159.96081"
         id="path43307" />
      <path
         style="fill:none;fill-opacity:0.222798;stroke:#2470b7;stroke-width:0.497;stroke-linecap:round;stroke-dasharray:none;stroke-opacity:0.0518135"
         d="M 27.314945,95.602308 H 159.96081"
         id="path43309" />
      <path
         style="fill:none;fill-opacity:0.222798;stroke:#2470b7;stroke-width:0.497;stroke-linecap:round;stroke-dasharray:none;stroke-opacity:0.0518135"
         d="M 27.314945,102.15041 H 159.96081"
         id="path43311" />
      <path
         style="fill:none;fill-opacity:0.222798;stroke:#2470b7;stroke-width:0.497;stroke-linecap:round;stroke-dasharray:none;stroke-opacity:0.0518135"
         d="M 27.314945,108.8856 H 159.96081"
         id="path43313" />
      <path
         style="fill:none;fill-opacity:0.222798;stroke:#2470b7;stroke-width:0.497;stroke-linecap:round;stroke-dasharray:none;stroke-opacity:0.0518135"
         d="M 27.314945,114.87244 H 159.96081"
         id="path43315" />
      <path
         style="fill:none;fill-opacity:0.222798;stroke:#2470b7;stroke-width:0.497;stroke-linecap:round;stroke-dasharray:none;stroke-opacity:0.0518135"
         d="M 27.314945,121.60763 H 159.96081"
         id="path43317" />
      <path
         style="fill:none;fill-opacity:0.222798;stroke:#2470b7;stroke-width:0.497;stroke-linecap:round;stroke-dasharray:none;stroke-opacity:0.0518135"
         d="M 27.314945,127.59447 H 159.96081"
         id="path43319" />
      <path
         style="fill:none;fill-opacity:0.222798;stroke:#2470b7;stroke-width:0.497;stroke-linecap:round;stroke-dasharray:none;stroke-opacity:0.0518135"
         d="M 27.314945,134.32966 H 159.96081"
         id="path43321" />
      <path
         style="fill:none;fill-opacity:0.222798;stroke:#2470b7;stroke-width:0.497;stroke-linecap:round;stroke-dasharray:none;stroke-opacity:0.0518135"
         d="M 27.314945,140.3165 H 159.96081"
         id="path43323" />
      <path
         style="fill:none;fill-opacity:0.222798;stroke:#2470b7;stroke-width:0.497;stroke-linecap:round;stroke-dasharray:none;stroke-opacity:0.0518135"
         d="M 27.314945,147.05169 H 159.96081"
         id="path43325" />
    </g>
    <g
       id="g43502"
       transform="translate(0,86.263459)"
       style="stroke:#2470b7;stroke-opacity:0.0518135">
      <path
         style="fill:none;fill-opacity:0.222798;stroke:#2470b7;stroke-width:0.497;stroke-linecap:round;stroke-dasharray:none;stroke-opacity:0.0518135"
         d="M 27.314945,76.145087 H 159.96081"
         id="path43478" />
    </g>
    <path
       id="path46625"
       style="fill:#f7f5e0;fill-opacity:0.339286;stroke:none;stroke-width:0.497001;stroke-linecap:round;stroke-dasharray:none;stroke-opacity:0.0518135"
       d="m 165.01544,180.82465 c 1.39883,3.50666 -5.30709,5.02764 -7.38714,8.43872 -3.9057,3.05987 -9.06794,3.17507 -13.76652,3.78998 -3.70145,-0.23679 -7.79068,-3.51883 -9.43258,0.88726 -4.91602,0.53072 -10.16336,0.90411 -14.96705,-0.18707 -7.9222,-0.23067 -15.83589,0.58447 -23.755267,0.0378 -2.396083,-0.96468 -10.46394,0.74956 -14.972083,-0.0378 -4.11329,-1.09093 -9.023728,-1.15884 -11.225155,-0.37466 -3.097014,0.40955 -7.894106,1.24913 -6.373952,-3.53579 -3.144559,1.24891 -5.352304,3.13069 -8.967747,3.34872 -3.594176,2.67404 -8.727683,-0.83583 -12.772684,-0.59593 -5.792821,1.48621 -11.184516,-1.24443 -15.290202,-4.82957 0.374362,-1.74694 1.328922,-2.11352 0.901373,-3.76563 0.993342,0.38838 -6.001687,-1.27367 -6.058228,0.0879 -2.640068,3.31478 -0.923652,10.43448 -1.721795,15.28219 4.245639,-1.30584 3.932516,4.87206 8.439569,2.66422 4.593553,-1.3138 7.025324,-1.67636 12.649244,-1.87866 3.824247,0.30721 11.46771,-3.38912 12.91738,-1.72642 2.547861,4.94073 11.079485,1.79034 16.001388,2.6177 7.634498,0.139 15.249363,-0.3459 22.776398,-1.59184 5.44791,-0.41442 10.890191,0.12528 16.328201,0.24244 5.16369,1.05621 10.49707,2.30772 15.6983,1.00541 6.0403,0.53528 11.89102,0.0551 17.63191,-1.40491 5.34428,-0.0905 10.84164,-0.0978 16.03891,-0.92963 3.8582,-0.35542 10.17814,0.0723 11.8174,-2.79293 0.69144,-4.0198 1.50537,-9.78128 -0.11045,-12.6745 -0.6787,2.47255 -5.50838,5.55016 -2.9931,1.12242 0.0893,-1.27481 0.73446,-3.32343 -1.40612,-3.19942 z m -137.278955,3.04374 c 1.265516,-0.0131 0.967629,-0.39382 0,0 z m 26.385469,14.18673 c 0.877996,-0.002 0.241974,0.004 0,0 z" />
  </g>
</svg>
