<?xml version="1.0" encoding="UTF-8" standalone="no"?>
<!-- Created with Inkscape (http://www.inkscape.org/) -->

<svg
   version="1.1"
   id="svg54692"
   width="546.1333"
   height="546.1333"
   viewBox="0 0 546.1333 546.1333"
   sodipodi:docname="watering-can.png"
   inkscape:export-filename="..\GIT\slutprojektet\src\main\resources\static\images\wcan.svg"
   inkscape:export-xdpi="96"
   inkscape:export-ydpi="96"
   xmlns:inkscape="http://www.inkscape.org/namespaces/inkscape"
   xmlns:sodipodi="http://sodipodi.sourceforge.net/DTD/sodipodi-0.dtd"
   xmlns="http://www.w3.org/2000/svg"
   xmlns:svg="http://www.w3.org/2000/svg">
  <defs
     id="defs54696" />
  <sodipodi:namedview
     id="namedview54694"
     pagecolor="#505050"
     bordercolor="#eeeeee"
     borderopacity="1"
     inkscape:showpageshadow="0"
     inkscape:pageopacity="0"
     inkscape:pagecheckerboard="0"
     inkscape:deskcolor="#505050"
     showgrid="false" />
  <g
     inkscape:groupmode="layer"
     inkscape:label="Image"
     id="g54698">
    <g
       inkscape:groupmode="layer"
       id="layer2"
       inkscape:label="fert">
      <path
         style="display:inline;fill:#513117;fill-opacity:1;stroke-width:1.87843;stroke-linecap:round;stroke-opacity:0.0518135"
         d="m 506.12556,85.733009 c 0,0 -85.96659,41.272831 -72.82782,7.824359 C 442.2231,70.835338 401.29903,72.809546 391.89772,84.044175 377.6223,59.2467 367.09108,65.542679 355.02938,75.628704 345.09927,57.08144 324.04836,59.56244 315.0998,71.710311 308.9508,56.030036 285.92301,55.382522 276.00012,69.188043 270.37163,56.829389 247.26686,49.625142 236.38463,70.43419 211.17737,45.763399 198.54167,64.75656 195.4431,72.450337 168.18894,51.410318 142.4922,75.473852 145.0809,89.362035 116.28296,68.45495 89.335256,101.93701 106.0382,117.31884 84.865144,115.8223 48.329644,130.99698 75.204393,163.94558 c -42.498593,3.81926 -64.048566,51.69604 -3.23581,69.24053 17.814721,5.13955 1.914917,20.025 34.821657,51.0865 80.4687,75.95644 324.88297,-47.37877 324.88297,-47.37877 z"
         id="path55461"
         sodipodi:nodetypes="cscccccccccsscc" />
      <path
         id="path58014"
         style="display:inline;fill:#442913;fill-opacity:1;stroke-width:1.87843;stroke-linecap:round;stroke-opacity:0.0518135"
         d="m 411.99219,76.121094 c -0.4844,0.211438 -0.88936,0.374488 -1.37696,0.58789 -17.72001,7.755446 -34.68932,14.976548 -50.93554,21.699219 -16.24623,6.722667 -31.76857,12.946017 -46.58985,18.708987 -14.82127,5.76297 -28.94156,11.06506 -42.38672,15.9414 -13.44515,4.87635 -26.2161,9.32783 -38.33398,13.39063 -12.11788,4.06279 -23.58438,7.73627 -34.42383,11.05859 -10.83944,3.32232 -21.05031,6.29235 -30.66015,8.94727 -9.60985,2.65492 -18.61779,4.99605 -27.04688,7.05664 -8.42909,2.06059 -16.28095,3.84152 -23.57812,5.38086 -7.29717,1.53934 -14.03982,2.83657 -20.25391,3.92773 -6.214087,1.09116 -11.898281,1.97535 -17.078125,2.69141 -5.179844,0.71606 -9.856341,1.26371 -14.050781,1.67773 -4.19444,0.41403 -7.908141,0.69579 -11.166016,0.88086 -3.257874,0.18508 -6.05954,0.27354 -8.429687,0.30274 -2.370148,0.0292 -4.308584,-0.001 -5.839844,-0.0547 -2.224381,-0.0779 -2.68507,-0.15914 -3.265625,-0.22266 -6.930319,15.81159 1.233484,35.23494 35.392578,45.08985 15.985241,4.61174 4.934593,17.11313 26.248047,42.06445 L 437.68945,160.9375 c 0,0 4.00638,-3.2552 10.46485,-8.70898 3.22923,-2.7269 7.07149,-6.00297 11.33203,-9.69727 4.26054,-3.6943 8.94078,-7.80739 13.84375,-12.20508 4.90297,-4.39769 10.02902,-9.08091 15.18554,-13.91797 1.60091,-1.50172 3.16875,-3.08002 4.76954,-4.60742 L 506.125,85.732422 c 0,0 -85.96688,41.272658 -72.82812,7.824219 5.50714,-14.020006 -7.97002,-18.59406 -21.30469,-17.435547 z" />
      <path
         style="fill:#f5f5f5;fill-opacity:1;stroke-width:1.87843;stroke-linecap:round;stroke-opacity:0.0518135"
         d="M 75.204394,229.3734 C 120.62518,225.03183 318.12168,137.3098 410.61599,77.460525 c 38.35423,-24.817449 44.4407,-5.384418 48.88285,-3.008176 13.32209,7.126395 50.04339,-23.175814 50.96834,13.745412 20.03783,43.163489 28.83447,244.338629 28.04095,286.363169 -1.2683,67.16824 -14.33351,115.01967 -14.33351,115.01967 0,0 3.66837,13.40465 -1.50409,18.04906 -11.49344,10.32007 -51.13899,-3.00818 -51.13899,-3.00818 H 49.6349 c 0,0 -21.646856,10.49011 -30.081758,3.00817 -7.587653,-6.73041 4.512264,-14.28883 4.512264,-14.28883 0,0 -1.271759,-85.76205 3.356669,-128.64307 C 31.316812,328.61416 49.6349,256.44698 49.6349,256.44698 l -9.024528,-13.53679 c 0,0 -10.826772,-9.19522 34.594022,-13.53679 z"
         id="path55313"
         sodipodi:nodetypes="zsscscsccscsccz" />
      <path
         id="path57953"
         style="fill:#cbcbcb;fill-opacity:0.525;stroke-width:1.87843;stroke-linecap:round;stroke-opacity:0.0518135"
         d="m 23.990234,453.48242 c -0.04987,9.52536 -0.08618,19.21376 -0.05078,25.78711 0.04691,8.7102 0.125,14.07031 0.125,14.07031 0,0 -0.755675,0.47335 -1.771484,1.28711 -0.507905,0.40688 -1.080648,0.89976 -1.65625,1.46094 -0.575602,0.56118 -1.152745,1.19032 -1.671875,1.87305 -0.51913,0.68272 -0.979871,1.41794 -1.31836,2.18945 -0.338488,0.77151 -0.556167,1.58067 -0.589843,2.4082 -0.03368,0.82754 0.116414,1.6746 0.511718,2.52539 0.197653,0.4254 0.456977,0.85032 0.785157,1.2754 0.328179,0.42507 0.724991,0.84888 1.199218,1.26953 0.527181,0.46762 1.106627,0.86505 1.728516,1.19921 0.621889,0.33417 1.286752,0.60571 1.986328,0.82032 1.399151,0.4292 2.937148,0.63362 4.544922,0.66797 1.607774,0.0343 3.284615,-0.10224 4.964844,-0.35157 1.680229,-0.24932 3.363951,-0.61138 4.980468,-1.0332 3.233036,-0.84364 6.202096,-1.92057 8.363282,-2.78711 2.161186,-0.86654 3.513672,-1.52344 3.513672,-1.52344 H 471.53125 c 0,0 2.47865,0.83361 6.375,1.92188 1.94818,0.54413 4.25038,1.15241 6.77539,1.75195 2.52501,0.59955 5.27236,1.19066 8.10938,1.70117 2.83701,0.51052 5.76425,0.93976 8.64843,1.2168 2.88418,0.27704 5.72607,0.40165 8.39258,0.30078 1.33326,-0.0504 2.62238,-0.15808 3.85156,-0.33008 1.22919,-0.17199 2.39823,-0.40909 3.49024,-0.7207 1.09201,-0.31161 2.10757,-0.69674 3.02929,-1.16601 0.92173,-0.46928 1.74846,-1.02297 2.4668,-1.66797 0.64656,-0.58055 1.15607,-1.29641 1.55078,-2.10743 0.39472,-0.81101 0.67546,-1.71697 0.86719,-2.67187 0.19173,-0.9549 0.29441,-1.96045 0.33203,-2.97266 0.0376,-1.0122 0.009,-2.03074 -0.0586,-3.01367 -0.13527,-1.96585 -0.43222,-3.78598 -0.69531,-5.11523 -0.26309,-1.32926 -0.49219,-2.16797 -0.49219,-2.16797 0,0 0.81782,-2.98982 2.0625,-8.52539 0.62234,-2.76779 1.35084,-6.17177 2.13867,-10.15625 0.78783,-3.98448 1.63403,-8.54896 2.49023,-13.63867 0.19264,-1.14515 0.38113,-2.57971 0.57422,-3.77735 0,0 -159.27784,34.12466 -259.19955,33.84198 C 41.314916,486.67109 23.990234,453.48242 23.990234,453.48242 Z"
         sodipodi:nodetypes="cscssssssssssssssccsssssssssssssscssscsc" />
      <path
         id="path58016"
         style="display:inline;fill:#513117;fill-opacity:1;stroke-width:1.87843;stroke-linecap:round;stroke-opacity:0.0518135"
         d="m 411.99219,76.121094 c -8.27663,0.719071 -16.49327,3.62123 -20.09375,7.923828 C 377.62303,59.247472 367.09098,65.542891 355.0293,75.628906 345.0992,57.081661 324.04816,59.563079 315.09961,71.710938 308.95062,56.030678 285.92288,55.381993 276,69.1875 270.37152,56.828858 247.26698,49.624567 236.38477,70.433594 211.17753,45.762827 198.54193,64.757403 195.44336,72.451172 168.18923,51.411174 142.49138,75.473159 145.08008,89.361328 116.28217,68.454264 89.336135,101.93654 106.03906,117.31836 84.866028,115.82182 48.330356,130.99675 75.205078,163.94531 56.578385,165.61925 41.98375,175.75826 36.576172,188.0957 c 0.580555,0.0635 1.041244,0.14478 3.265625,0.22266 1.53126,0.0536 3.469696,0.0839 5.839844,0.0547 2.370147,-0.0292 5.171813,-0.11766 8.429687,-0.30274 3.257875,-0.18507 6.971576,-0.46683 11.166016,-0.88086 4.19444,-0.41402 8.870937,-0.96167 14.050781,-1.67773 5.179844,-0.71606 10.864038,-1.60025 17.078125,-2.69141 6.21409,-1.09116 12.95674,-2.38839 20.25391,-3.92773 7.29717,-1.53934 15.14903,-3.32027 23.57812,-5.38086 8.42909,-2.06059 17.43703,-4.40172 27.04688,-7.05664 9.60984,-2.65492 19.82071,-5.62495 30.66015,-8.94727 10.83945,-3.32232 22.30595,-6.9958 34.42383,-11.05859 12.11788,-4.0628 24.88883,-8.51428 38.33398,-13.39063 13.44516,-4.87634 27.56545,-10.17843 42.38672,-15.9414 14.82128,-5.76297 30.34362,-11.98632 46.58985,-18.708987 16.24622,-6.722671 33.21553,-13.943773 50.93554,-21.699219 0.4876,-0.213402 0.89256,-0.376452 1.37696,-0.58789 z" />
      <path
         style="fill:#442913;fill-opacity:1;stroke-width:1.87843;stroke-linecap:round;stroke-opacity:0.0518135"
         d="m 387.66424,89.338261 c 0,0 35.09717,22.334569 31.90653,95.719569 -38.28783,-53.17754 -95.71957,-69.66257 -95.71957,-69.66257 z"
         id="path58073"
         sodipodi:nodetypes="cccc" />
    </g>
    <path
       style="display:inline;fill:#3a484a;stroke-width:1.60421"
       d="m 196.00883,444.0687 c -12.8868,-3.17901 -28.44976,-14.97463 -28.44976,-21.56286 0,-4.83312 3.85106,-10.35719 8.30216,-11.90885 5.22403,-1.8211 8.62816,-0.73003 17.20133,5.51331 7.55009,5.49825 20.42534,5.59269 26.91119,0.19738 7.0335,-5.85086 11.32981,-7.62478 15.76863,-6.5107 5.07274,1.27318 8.81863,6.4218 8.81863,12.12095 0,13.66449 -29.11242,26.94633 -48.55218,22.15077 z M 90.673549,430.29085 c -2.765076,-3.51521 -3.324844,-6.49844 -3.324844,-17.71918 0,-12.18627 0.381159,-13.8735 3.937596,-17.42994 2.16568,-2.16568 5.807963,-3.93761 8.093958,-3.93761 2.285991,0 5.928271,1.77193 8.093951,3.93761 3.58884,3.58884 3.93761,5.19807 3.93761,18.16873 0,12.80147 -0.373,14.58159 -3.71287,17.71922 -5.25371,4.9356 -12.820177,4.60724 -17.025401,-0.73883 z m 213.916811,0.87656 c -2.24687,-2.48277 -3.188,-6.43978 -3.63447,-15.28147 -0.69057,-13.67499 1.36001,-20.22903 7.15521,-22.8695 5.56876,-2.53731 7.59883,-2.29035 12.43341,1.51253 4.03231,3.17183 4.22686,4.02091 4.22686,18.44839 0,12.9846 -0.45377,15.57729 -3.20842,18.33195 -4.31098,4.31098 -13.00858,4.23828 -16.97259,-0.14197 z"
       id="path55184-3" />
    <g
       id="g55182"
       transform="translate(0.53177562,16.485034)"
       style="display:none">
      <path
         style="fill:#41c2e0;stroke-width:1.06667"
         d="m 153.06666,479.54887 c -8.764,-3.92812 -13.64491,-13.93587 -11.20889,-22.98257 1.63635,-6.07695 8.30087,-12.59863 13.76792,-13.47283 5.2002,-0.83156 5.37762,-1.41024 5.52661,-18.02683 0.0632,-7.04 0.4762,-17.36 0.91795,-22.93333 l 0.80318,-10.13333 -17.62675,-29.86667 C 135.55197,345.70665 112.63804,307.14879 94.326835,276.4492 L 61.033737,220.63175 44.297172,209.91734 c -15.190073,-9.72438 -16.979628,-10.60367 -19.367059,-9.51589 -3.690722,1.68161 -11.669159,1.49169 -15.2560273,-0.36315 -9.73785739,-5.03565 -12.6220462,-18.03685 -5.7998998,-26.14451 3.2124003,-3.81773 67.1083951,-47.59751 71.9117581,-49.27197 1.813029,-0.63202 5.379043,-0.9144 7.924474,-0.62749 13.542482,1.52643 19.959712,17.89203 11.011848,28.08308 l -3.266847,3.72074 3.422519,17.83424 c 1.882385,9.80885 3.855797,18.91684 4.38536,20.23999 0.900032,2.24878 19.624352,26.83951 60.561192,79.53526 9.61809,12.38084 17.47222,21.58478 17.7496,20.8 0.27363,-0.77421 2.45855,-9.80766 4.85536,-20.07432 6.33734,-27.14588 16.33678,-62.32179 25.09468,-88.27781 l 7.6549,-22.68706 -2.78952,-0.65503 c -4.97455,-1.1681 -10.23273,-4.67274 -12.94118,-8.62545 -2.11356,-3.08454 -2.64834,-5.18892 -2.64834,-10.42131 0,-7.85445 2.89165,-12.90737 9.58167,-16.74316 l 4.28499,-2.45684 86.68646,-0.53333 86.68646,-0.53334 5.13085,-11.88857 c 6.59711,-15.286054 10.43373,-21.1654 19.10483,-29.276789 11.0465,-10.333461 27.56513,-16.930926 42.39139,-16.930926 8.06723,0 19.33284,2.735912 27.77597,6.745538 8.67284,4.118712 19.86516,13.978015 25.06274,22.077744 4.01733,6.260473 36.46467,76.530953 39.621,85.806333 2.79448,8.21202 3.68646,21.94648 1.98873,30.622 -1.58674,8.1084 -7.21689,20.66421 -12.00512,26.77262 -3.41967,4.36252 -48.31743,57.83217 -52.12108,62.07204 -1.78526,1.99001 -1.80809,2.63499 -0.33983,9.6 6.34597,30.10356 11.58835,72.50065 13.40719,108.42899 l 1.27719,25.229 4.03877,0.64582 c 4.81695,0.77026 11.28065,6.09777 13.31999,10.97859 2.84085,6.79911 0.65778,17.22535 -4.58062,21.87691 -6.03706,5.36077 2.89992,5.11047 -180.87733,5.0656 -140.82531,-0.0344 -171.53175,-0.29463 -174.16758,-1.47602 z m 336.5559,-242.21555 c 10.07875,-11.73333 19.24001,-23.32983 20.35836,-25.77 2.80207,-6.11394 3.59485,-13.21385 2.12656,-19.04492 -2.23556,-8.87824 -35.45101,-79.60442 -39.47864,-84.06255 -11.9175,-13.191231 -32.67057,-13.025783 -44.12125,0.35175 -2.05239,2.39776 -4.69578,6.67958 -5.8742,9.51517 l -2.14257,5.15561 12.42124,0.4661 c 13.88782,0.52113 17.50437,1.77211 21.94162,7.58963 5.28301,6.92639 5.26791,16.9585 -0.036,23.91228 -2.90313,3.80622 -7.62833,6.68693 -10.96845,6.68693 -1.16785,0 -2.38355,0.42101 -2.70156,0.93557 -0.31802,0.51457 3.43071,13.11457 8.3305,27.99999 4.8998,14.88544 11.4687,36.54342 14.59755,48.12882 3.12885,11.58541 6.03376,20.70541 6.45535,20.26667 0.42158,-0.43874 9.01275,-10.39772 19.0915,-22.13105 z"
         id="path55190" />
      <path
         style="fill:#01a5c7;stroke-width:1.06667"
         d="m 153.59999,479.23034 c -9.69326,-3.64233 -14.61089,-16.51398 -9.86501,-25.82119 1.02576,-2.01162 3.7095,-5.13162 5.96388,-6.93334 l 4.09888,-3.27584 172.33799,-0.27942 172.33801,-0.27941 4.62234,2.23763 c 13.29201,6.43456 14.075,24.12739 1.44807,32.7212 l -3.52634,2.4 -172.9089,-0.0843 C 233.009,479.86944 154.47999,479.56101 153.59999,479.23034 Z M 149.17133,367.74859 C 55.206401,209.70005 62.5877,221.66153 56.38884,217.39342 53.241643,215.22647 45.514024,210.15526 39.216353,206.12406 l -11.450311,-7.32944 30.85259,-20.99732 c 16.968925,-11.54852 31.271649,-20.99731 31.783834,-20.99731 0.512183,0 2.528945,8.52 4.481691,18.93333 l 3.55045,18.93333 25.949443,33.6 c 14.27219,18.48 31.9521,41.28 39.28871,50.66667 7.33661,9.38666 13.35157,17.60397 13.36659,18.26069 0.015,0.65671 -1.14367,6.89671 -2.57486,13.86666 -3.2849,15.99756 -7.52071,43.45315 -9.68964,62.80597 -0.92049,8.21334 -1.7737,15.30021 -1.896,15.74861 -0.12231,0.4484 -6.29069,-9.3916 -13.70752,-21.86666 z m 168.88019,-51.46492 c -5.52375,-1.72382 -12.25549,-6.21162 -14.53427,-9.68949 -2.3921,-3.65081 -2.02885,-7.64625 0.96758,-10.64268 3.48874,-3.48874 6.78724,-3.29996 12.31573,0.70486 4.71093,3.41258 10.71543,4.89794 15.22466,3.76619 1.40475,-0.35256 4.37974,-2.09188 6.6111,-3.86513 4.76653,-3.78797 7.76052,-4.04908 11.61981,-1.01335 6.78096,5.3339 1.06935,15.39991 -11.36283,20.02563 -6.96699,2.59224 -14.04602,2.83475 -20.84178,0.71397 z m -64.90008,-6.42077 c -4.18216,-1.75846 -4.61812,-3.10817 -4.61812,-14.29755 0,-8.37006 0.25325,-9.56475 2.46874,-11.6461 3.27936,-3.0808 8.23943,-3.01467 11.21199,0.14948 2.01649,2.14646 2.31927,3.68735 2.31927,11.80345 0,5.13409 -0.46987,10.21268 -1.04415,11.28573 -1.62408,3.03462 -6.51199,4.3136 -10.33773,2.70499 z m 142.86569,0.43332 c -4.24979,-1.5721 -5.61715,-5.12174 -5.61715,-14.58206 0,-8.00361 0.25781,-9.13563 2.61818,-11.49599 5.10579,-5.1058 12.5591,-2.2217 13.99159,5.41412 1.14715,6.11488 0.0197,16.17075 -2.07211,18.48224 -2.19314,2.4234 -5.84966,3.31767 -8.92051,2.18169 z m 82.44269,-11.85058 c -0.29538,-1.34511 -2.22967,-9.68862 -4.29845,-18.54113 -2.06877,-8.85252 -3.7614,-16.94577 -3.7614,-17.98501 0,-1.44202 22.2015,-28.74748 25.62787,-31.51951 0.36257,-0.29334 3.60146,-4.05973 7.19753,-8.36975 8.04941,-9.64755 10.32074,-15.7261 9.58058,-25.63961 -0.47377,-6.3455 -2.25638,-10.80847 -17.67395,-44.24876 -9.43087,-20.4553 -18.35814,-39.02157 -19.83839,-41.25837 -3.09288,-4.67365 -9.97531,-9.7048 -15.93249,-11.646853 -6.08908,-1.985059 -16.37688,-0.998191 -22.23582,2.133003 -2.70699,1.44669 -6.71355,4.79034 -8.90347,7.43034 -3.60948,4.35133 -7.95519,12.55731 -7.95519,15.02177 0,0.53803 5.29541,0.97823 11.76759,0.97823 13.00672,0 16.90325,1.08786 21.49788,6.00196 5.14932,5.50734 6.55241,13.07309 3.69342,19.91563 -1.96912,4.71275 -8.33773,10.06534 -13.20275,11.09647 -2.21255,0.46893 -55.3828,0.85261 -118.15613,0.85261 H 211.73332 l -4.70551,-2.66667 c -5.66879,-3.21256 -8.45564,-6.75773 -9.71366,-12.35677 -1.81217,-8.06538 1.60238,-16.01713 8.664,-20.17656 3.52125,-2.07409 6.04497,-2.14815 90.87502,-2.66667 l 87.25317,-0.53333 4.91601,-11.73333 c 2.70381,-6.45334 7.1179,-15.05406 9.8091,-19.112722 8.16776,-12.317991 21.59695,-21.767962 36.61563,-25.766005 7.31361,-1.946916 23.24628,-1.914084 30.68622,0.06323 16.21213,4.30871 31.85752,16.281891 39.11553,29.934526 5.02287,9.448261 34.38647,73.702851 36.77885,80.480961 4.33891,12.29302 4.42039,28.33821 0.20835,41.02472 -3.60728,10.865 -6.99803,15.346 -50.20428,66.34682 -11.25776,13.28871 -13.1081,15.053 -13.57193,12.94077 z"
         id="path55188" />
      <path
         style="fill:#0094b2;stroke-width:1.06667"
         d="m 148.84273,366.95188 -13.79739,-22.91476 2.94526,-17.61857 c 3.36359,-20.1209 12.50049,-62.98365 13.4057,-62.88832 0.33203,0.035 6.23682,7.45551 13.12177,16.49006 l 12.51808,16.42648 -2.09104,10.16261 c -4.57663,22.24277 -9.14778,52.17682 -11.49233,75.25726 l -0.81265,8 z m 169.20879,-50.66821 c -5.52375,-1.72382 -12.25549,-6.21162 -14.53427,-9.68949 -2.3921,-3.65081 -2.02885,-7.64625 0.96758,-10.64268 3.48874,-3.48874 6.78724,-3.29996 12.31573,0.70486 4.71093,3.41258 10.71543,4.89794 15.22466,3.76619 1.40475,-0.35256 4.37974,-2.09188 6.6111,-3.86513 4.76653,-3.78797 7.76052,-4.04908 11.61981,-1.01335 6.78096,5.3339 1.06935,15.39991 -11.36283,20.02563 -6.96699,2.59224 -14.04602,2.83475 -20.84178,0.71397 z m -64.90008,-6.42077 c -4.18216,-1.75846 -4.61812,-3.10817 -4.61812,-14.29755 0,-8.37006 0.25325,-9.56475 2.46874,-11.6461 3.27936,-3.0808 8.23943,-3.01467 11.21199,0.14948 2.01649,2.14646 2.31927,3.68735 2.31927,11.80345 0,5.13409 -0.46987,10.21268 -1.04415,11.28573 -1.62408,3.03462 -6.51199,4.3136 -10.33773,2.70499 z m 142.86569,0.43332 c -4.24979,-1.5721 -5.61715,-5.12174 -5.61715,-14.58206 0,-8.00361 0.25781,-9.13563 2.61818,-11.49599 5.10579,-5.1058 12.5591,-2.2217 13.99159,5.41412 1.14715,6.11488 0.0197,16.17075 -2.07211,18.48224 -2.19314,2.4234 -5.84966,3.31767 -8.92051,2.18169 z m 82.90966,-11.12587 c -0.003,-0.57037 -1.92359,-9.16269 -4.26667,-19.09404 -2.34308,-9.93135 -4.26015,-18.41237 -4.26015,-18.84672 0,-1.68586 24.84165,-29.87652 25.59434,-29.0448 0.78294,0.86514 9.60566,34.16029 9.60566,36.24981 0,0.58565 -5.08411,7.02745 -11.29802,14.31511 -13.30734,15.60683 -15.36646,17.80595 -15.37516,16.42064 z M 45.333331,210.00702 c -8.213333,-5.32924 -15.333829,-10.06546 -15.823323,-10.52494 -0.489495,-0.45947 12.932856,-10.24456 29.827445,-21.74463 16.89459,-11.50008 31.031842,-20.55558 31.416115,-20.12335 0.925623,1.04116 7.957205,37.38953 7.331881,37.90071 -3.225218,2.63653 -36.025442,24.21371 -36.787447,24.20012 -0.567237,-0.0101 -7.751339,-4.37868 -15.964671,-9.70791 z M 385.06664,123.1325 c 0,-1.81475 9.0649,-22.06827 10.04031,-22.43287 0.63784,-0.2384 8.89333,0.64979 18.34558,1.97377 l 17.18588,2.40723 -3.52032,4.58568 c -1.93619,2.52213 -4.33504,6.71898 -5.3308,9.32634 l -1.81048,4.74068 h -17.45509 c -9.60029,0 -17.45508,-0.27037 -17.45508,-0.60083 z"
         id="path55186" />
      <path
         style="fill:#3a484a;stroke-width:1.06667"
         d="m 320.78342,316.7506 c -8.56867,-2.11378 -18.91677,-9.9569 -18.91677,-14.33754 0,-3.21363 2.56064,-6.88668 5.52026,-7.91841 3.47355,-1.21088 5.73702,-0.48541 11.43748,3.6659 5.02019,3.65589 13.58118,3.71868 17.89374,0.13124 4.6767,-3.89034 7.5334,-5.06985 10.48485,-4.32908 3.37296,0.84656 5.86367,4.26997 5.86367,8.05944 0,9.08577 -19.35738,17.91711 -32.28323,14.72845 z m -70.03935,-9.16114 c -1.83855,-2.33733 -2.21075,-4.32093 -2.21075,-11.78181 0,-8.10287 0.25344,-9.22474 2.61818,-11.58948 1.44,-1.44 3.86182,-2.61819 5.38182,-2.61819 1.52,0 3.94181,1.17819 5.38181,2.61819 2.38629,2.38628 2.61819,3.45629 2.61819,12.08072 0,8.51193 -0.24801,9.69556 -2.46875,11.78183 -3.49329,3.28177 -8.52437,3.06344 -11.3205,-0.49126 z m 142.23719,0.58284 c -1.49399,-1.65084 -2.11976,-4.28193 -2.41663,-10.16093 -0.45917,-9.09275 0.9043,-13.45065 4.75763,-15.20635 3.70277,-1.6871 5.0526,-1.52289 8.2672,1.00571 2.68116,2.10901 2.81052,2.67358 2.81052,12.26667 0,8.6337 -0.30172,10.35763 -2.13334,12.18925 -2.86645,2.86645 -8.64964,2.81811 -11.28538,-0.0944 z"
         id="path55184" />
    </g>
  </g>
</svg>
