<?xml version="1.0" encoding="UTF-8" standalone="no"?>
<!-- Created with Inkscape (http://www.inkscape.org/) -->

<svg
   version="1.1"
   id="svg77654"
   width="512"
   height="512"
   viewBox="0 0 512 512"
   sodipodi:docname="spade3.svg"
   inkscape:version="1.2.2 (732a01da63, 2022-12-09)"
   xmlns:inkscape="http://www.inkscape.org/namespaces/inkscape"
   xmlns:sodipodi="http://sodipodi.sourceforge.net/DTD/sodipodi-0.dtd"
   xmlns="http://www.w3.org/2000/svg"
   xmlns:svg="http://www.w3.org/2000/svg">
  <defs
     id="defs77658" />
  <sodipodi:namedview
     id="namedview77656"
     pagecolor="#505050"
     bordercolor="#eeeeee"
     borderopacity="1"
     inkscape:showpageshadow="0"
     inkscape:pageopacity="0"
     inkscape:pagecheckerboard="0"
     inkscape:deskcolor="#505050"
     showgrid="false"
     inkscape:zoom="0.70917838"
     inkscape:cx="343.35508"
     inkscape:cy="486.47845"
     inkscape:window-width="2560"
     inkscape:window-height="1377"
     inkscape:window-x="-8"
     inkscape:window-y="-8"
     inkscape:window-maximized="1"
     inkscape:current-layer="g77660" />
  <g
     inkscape:groupmode="layer"
     inkscape:label="Image"
     id="g77660">
    <circle
       style="fill:#4b6c33;stroke-width:1.87843;stroke-linecap:round;fill-opacity:1"
       id="circle78253"
       r="236.89384"
       cy="256"
       cx="256" />
    <circle
       style="fill:#f2f2f2;stroke-width:1.55418;stroke-linecap:round"
       id="path78215"
       r="196.00146"
       cy="256"
       cx="256" />
    <g
       id="g78213"
       transform="matrix(0.76340526,0,0,0.76340526,-16.801222,-19.390527)">
      <g
         id="g78156"
         transform="translate(97.713729,98.710808)">
        <path
           style="fill:#aebcc2"
           d="m 399,478.48929 c -31.07682,-4.26773 -60.24539,-17.32418 -85,-38.04775 -4.125,-3.45328 -16.34465,-15.20283 -27.15478,-26.11012 -28.33824,-28.59293 -28.32095,-26.32943 -0.41452,-54.26205 l 19.56241,-19.58078 -82.75843,-82.75392 -82.75843,-82.75393 -31.98813,4.59221 c -27.738346,3.98211 -32.519539,4.43453 -35.98812,3.40535 -3.219538,-0.95528 -8.747829,-5.89806 -28.333438,-25.33258 -13.383391,-13.28014 -25.195891,-25.81529 -26.25,-27.85588 -2.4433,-4.72985 -2.437618,-9.86925 0.01612,-14.57968 2.50937,-4.81723 94.687788,-96.79102 98.382418,-98.164014 3.96757,-1.474426 10.30322,-1.298999 13.48456,0.373372 1.48519,0.780734 14.023,12.818234 27.8618,26.75 21.71194,21.857796 25.25909,25.85361 25.87363,29.146284 0.48157,2.580208 -0.75899,14.075462 -3.83112,35.499998 l -4.54331,31.6842 82.39268,82.47225 82.39268,82.47225 19.78958,-19.6324 c 28.1166,-27.89327 26.40913,-27.86226 53.5925,-0.97341 10.37615,10.26372 22.279,22.71131 26.45078,27.66131 22.15065,26.2827 35.54577,56.46834 39.2686,88.49097 2.20731,18.98659 -0.0122,49.06948 -4.671,63.30901 -2.10918,6.44672 -6.67175,9.40514 -18.11885,11.74847 -19.69513,4.03178 -39.51907,4.87686 -57.25763,2.44084 z M 141.59091,141.74242 c 0.33863,-0.33862 2.47251,-13.69736 4.74197,-29.68608 L 150.45917,82.985936 136.48901,68.988984 122.51884,54.992032 88.762916,88.737007 55.006991,122.48198 l 14.049098,14.07421 14.049097,14.07421 28.935024,-4.13615 c 15.91426,-2.27488 29.21207,-4.4132 29.5507,-4.75183 z"
           id="path78166" />
        <path
           style="fill:#f5a525"
           d="M 413.45174,412.94679 C 372.30801,371.79475 356.08365,356.17725 355,356.6814 c -0.825,0.38382 -4.1459,0.88044 -7.37977,1.10359 -7.05014,0.4865 -15.10695,-1.55013 -25.62023,-6.47635 -7.32681,-3.43314 -9.50157,-5.5133 -94.17824,-90.0819 l -86.67824,-86.5676 -32.75539,4.636 -32.755381,4.636 -4.066375,-1.85129 C 68.851598,180.8439 59.132588,171.79788 42.326064,154.86428 20.981214,133.35804 17.049808,128.9415 16.479439,125.82817 14.991899,117.70855 14.278173,118.57466 64.644496,67.379246 91.297269,40.287733 113.51165,18.51056 115.41619,17.606794 c 4.25476,-2.019013 9.83564,-2.05566 13.97425,-0.09176 1.75598,0.833268 14.27072,12.645768 27.81054,26.25 C 177.14024,63.799139 182.0418,69.260197 182.992,72.5 c 1.01282,3.453312 0.54553,8.371883 -3.41905,35.98812 l -4.59221,31.98813 82.75381,82.75832 82.75382,82.75831 19.00581,-18.88997 c 10.4532,-10.38949 19.98874,-19.38789 21.19008,-19.99644 3.04028,-1.5401 9.88777,-1.38175 13.1154,0.30329 3.56926,1.8634 44.52813,43.41316 50.36367,51.09024 30.07899,39.57111 41.49305,85.79584 32.71762,132.5 -2.31697,12.33127 -3.52498,16.45968 -5.23037,17.87503 -0.93284,0.77419 -15.59895,-13.31973 -58.19884,-55.92824 z M 114.5,146.42902 c 14.85,-2.06454 27.15506,-3.87321 27.34458,-4.01928 0.18952,-0.14606 2.25948,-13.46051 4.5999,-29.58766 L 150.6998,83.5 136.60909,69.246248 122.51838,54.992495 88.762685,88.737238 55.006991,122.48198 69.253496,136.77532 C 80.057669,147.615 83.983253,150.96162 85.5,150.62569 c 1.1,-0.24363 14.15,-2.13214 29,-4.19667 z"
           id="path78164" />
        <path
           style="fill:#778e9a"
           d="M 413.45174,412.94679 C 372.22407,371.71079 356.08586,356.17766 355,356.68662 c -4.20163,1.96936 -14.19689,1.45055 -22.29086,-1.15702 -13.14826,-4.23586 -18.92916,-8.12011 -32.69059,-21.96519 l -12.48146,-12.55731 8.35613,-8.39976 8.35612,-8.39976 -80.37467,-80.67829 c -44.20607,-44.37307 -80.51474,-81.2916 -80.68594,-82.04119 -0.1712,-0.7496 1.55712,-14.28185 3.8407,-30.07168 L 151.1814,82.707634 137.3541,68.853817 C 129.74908,61.234218 123.07559,55 122.52412,55 c -0.55147,0 -8.43875,7.426426 -17.52729,16.503169 L 88.472211,88.006339 77.498714,76.99871 66.525218,65.991082 89.512609,42.88806 C 114.56569,17.708962 117.83436,15.303232 125.31724,16.536031 c 3.82477,0.630128 6.42754,2.920659 30.41069,26.762497 23.25177,23.114772 26.31873,26.532572 27.02818,30.120018 0.58418,2.953999 -0.42028,12.651513 -3.7201,35.915434 l -4.52036,31.8688 82.84245,82.53882 82.84244,82.53882 19.14973,-19.03374 c 10.53235,-10.46856 20.13265,-19.53166 21.33399,-20.14021 3.04028,-1.5401 9.88777,-1.38175 13.1154,0.30329 3.56926,1.8634 44.52813,43.41316 50.36367,51.09024 30.07899,39.57111 41.49305,85.79584 32.71762,132.5 -2.31697,12.33127 -3.52498,16.45968 -5.23037,17.87503 -0.93284,0.77419 -15.59895,-13.31973 -58.19884,-55.92824 z"
           id="path78162" />
        <path
           style="fill:#f17d15"
           d="M 330.5,329.94277 C 316.75,316.16897 303.73284,303.23461 301.57297,301.19975 288.7602,289.12853 143.44521,142.58003 143.18873,141.47106 c -0.1712,-0.74022 1.55712,-14.26481 3.8407,-30.05464 L 151.1814,82.707634 137.3541,68.853817 C 129.74908,61.234218 123.07559,55 122.52412,55 c -0.55147,0 -8.43875,7.426426 -17.52729,16.503169 L 88.472211,88.006339 77.498714,76.99871 66.525218,65.991082 89.512609,42.88806 C 114.56569,17.708962 117.83436,15.303232 125.31724,16.536031 c 3.82477,0.630128 6.42754,2.920659 30.41069,26.762497 23.25177,23.114772 26.31873,26.532572 27.02818,30.120018 0.58407,2.95344 -0.4175,12.631926 -3.70751,35.826634 l -4.50776,31.78001 86.63623,86.73741 c 92.89513,93.00361 88.94509,88.62234 94.31081,104.60655 3.08067,9.17715 3.47094,22.65444 0.65513,22.62387 C 355.78936,354.98918 344.25,343.71657 330.5,329.94277 Z"
           id="path78160" />
        <path
           style="fill:#536d79"
           d="m 330.5,330.0989 c -13.75,-13.68793 -25.12359,-25.49729 -25.27464,-26.24302 -0.15105,-0.74573 3.23934,-4.84879 7.53421,-9.11789 l 7.80885,-7.76202 13.59715,13.76202 c 14.38271,14.55709 16.78906,18.12686 21.32231,31.63116 3.08067,9.17715 3.47094,22.65444 0.65513,22.62387 C 355.78936,354.98918 344.25,343.78682 330.5,330.0989 Z"
           id="path78158" />
      </g>
      <g
         id="g78178"
         transform="translate(98.710808,99.707887)">
        <path
           id="path78168"
           style="fill:#aebcc2"
           d="m 178.81654,144.15735 c -1.74334,1.5515 -3.5163,3.13096 -5.33594,4.67578 -1.95124,1.65854 -3.93936,3.26583 -5.9707,4.7168 -0.74887,0.5349 -2.2555,1.49403 -3.69336,2.46289 -1.4381,0.96909 -2.80791,1.94838 -3.28711,2.52343 -0.33643,0.40371 -0.44955,0.92501 -0.54688,1.45899 -0.0976,0.53422 -0.17885,1.08063 -0.44922,1.53125 -0.37001,0.61669 -0.73964,1.04663 -1.11718,1.37695 -0.37764,0.33032 -0.7626,0.56035 -1.16602,0.77734 -7.8e-4,4.2e-4 -0.001,0.002 -0.002,0.002 -0.80661,0.434 -1.68223,0.81309 -2.70118,1.83203 -0.26275,0.26275 -0.3566,0.65774 -0.46289,1.03906 -0.10628,0.38132 -0.22401,0.74896 -0.5332,0.95508 -1.18285,0.78857 -1.72372,0.94492 -1.94336,0.81055 -0.11034,-0.0675 -0.13949,-0.20798 -0.1289,-0.37891 0.0211,-0.34078 0.20117,-0.80053 0.21679,-1.03711 0.0234,-0.35487 -0.32287,-0.20643 -2.13281,1.60352 -0.1555,0.15549 -1.83864,2.83474 -1.99414,2.99023 -0.73119,0.73119 -4.54522,2.55108 -4.98633,2.99219 -0.45709,0.45709 -0.43261,1.29216 -0.81836,1.7793 l 81.4707,81.46679 82.75782,82.75391 -19.5625,19.58008 c -27.90639,27.93256 -27.92217,25.66883 0.41601,54.26172 10.81011,10.90725 23.0293,22.65806 27.1543,26.11132 24.75455,20.72353 53.92324,33.77915 85,38.04688 17.73852,2.43602 37.56272,1.59037 57.25781,-2.44141 11.44708,-2.34333 16.00996,-5.30134 18.11914,-11.74804 4.6588,-14.23951 6.87723,-44.32205 4.66992,-63.3086 -3.72281,-32.02257 -17.11698,-62.20953 -39.26757,-88.49219 -4.17178,-4.94998 -16.07505,-17.39645 -26.45118,-27.66015 -27.18331,-26.88881 -25.47525,-26.92056 -53.59179,0.97265 l -19.79102,19.63282 -82.39258,-82.47266 z" />
        <path
           id="path78170"
           style="fill:#f5a525"
           d="m 178.7345,144.22961 c -3.58944,3.19461 -7.33466,6.54178 -11.2246,9.32032 -1.49774,1.0698 -6.02206,3.83622 -6.98047,4.98632 -0.67285,0.80741 -0.45536,2.08901 -0.9961,2.99024 -1.48006,2.46676 -2.94844,1.9504 -4.98633,3.98828 -0.52549,0.52551 -0.37772,1.5819 -0.99609,1.99414 -4.73889,3.15927 0.83823,-3.82847 -3.98828,0.99805 -0.1555,0.15549 -1.83864,2.83474 -1.99414,2.99023 -0.73119,0.73119 -4.54522,2.55108 -4.98633,2.99219 -0.28144,0.28144 -0.38341,0.70194 -0.5,1.10742 l 85.74024,85.63086 c 84.67658,84.56852 86.85093,86.64694 94.17773,90.08008 10.51327,4.92621 18.56901,6.96306 25.61914,6.47656 3.23387,-0.22315 6.55586,-0.7197 7.38086,-1.10352 1.08365,-0.50414 17.30748,15.11363 58.45117,56.26563 42.59985,42.60847 57.26638,56.70192 58.19922,55.92773 1.70539,-1.41534 2.9135,-5.54374 5.23047,-17.875 8.77542,-46.70411 -2.63784,-92.92893 -32.7168,-132.5 -5.83553,-7.67707 -46.79598,-49.22644 -50.36523,-51.08984 -3.22763,-1.68504 -10.07496,-1.84283 -13.11524,-0.30273 -1.20134,0.60855 -10.73626,9.60661 -21.18945,19.99609 l -19.00586,18.89062 -82.75391,-82.75781 z" />
        <path
           id="path78172"
           style="fill:#778e9a"
           d="m 178.10755,144.78039 c -3.40261,3.02681 -6.93009,6.14984 -10.59765,8.76954 -1.49774,1.0698 -6.02206,3.83622 -6.98047,4.98632 -0.16254,0.19504 -0.18172,0.46666 -0.26368,0.70508 14.75177,15.06637 37.20914,37.78713 63.60938,64.28711 l 80.375,80.67969 -8.35742,8.39844 -8.35547,8.40039 12.48047,12.55664 c 13.76141,13.84506 19.54316,17.73094 32.6914,21.96679 8.09397,2.60757 18.08939,3.12561 22.29102,1.15625 1.08586,-0.50896 17.22354,15.02381 58.45117,56.25977 42.59985,42.60847 57.26638,56.70192 58.19922,55.92773 1.70539,-1.41534 2.9135,-5.54374 5.23047,-17.875 8.77542,-46.70411 -2.63784,-92.92893 -32.7168,-132.5 -5.83553,-7.67707 -46.79598,-49.22644 -50.36523,-51.08984 -3.22763,-1.68504 -10.07496,-1.84283 -13.11524,-0.30273 -1.20134,0.60855 -10.80164,9.67207 -21.33398,20.14062 l -19.14844,19.0332 -82.84375,-82.53906 z" />
        <path
           id="path78174"
           style="fill:#f17d15"
           d="m 178.20521,144.69446 c -3.4319,3.05338 -9.63699,-0.31062 -13.33921,2.33384 -1.49774,1.0698 -3.37816,10.35785 -4.33657,11.50795 -0.12473,0.14968 -0.19544,0.32703 -0.26953,0.50391 36.222,36.96584 130.8716,132.32354 141.3125,142.16016 2.15986,2.03485 15.17774,14.9684 28.92773,28.74218 13.74999,13.77379 25.28893,25.04694 25.64258,25.05078 2.8158,0.0306 2.42637,-13.44785 -0.6543,-22.625 -5.36571,-15.98419 -1.41551,-11.60195 -94.31055,-104.60546 z"
           sodipodi:nodetypes="csscsssscc" />
        <path
           style="fill:#536d79"
           d="m 330.5,330.0989 c -13.75,-13.68793 -25.12359,-25.49729 -25.27464,-26.24302 -0.15105,-0.74573 3.23934,-4.84879 7.53421,-9.11789 l 7.80885,-7.76202 13.59715,13.76202 c 14.38271,14.55709 16.78906,18.12686 21.32231,31.63116 3.08067,9.17715 3.47094,22.65444 0.65513,22.62387 C 355.78936,354.98918 344.25,343.78682 330.5,330.0989 Z"
           id="path78176" />
      </g>
    </g>
  </g>
</svg>
