<?xml version="1.0" encoding="UTF-8" standalone="no"?>
<!-- Created with Inkscape (http://www.inkscape.org/) -->

<svg
   version="1.1"
   id="svg54692"
   width="546.1333"
   height="546.1333"
   viewBox="0 0 546.1333 546.1333"
   sodipodi:docname="watering-can.png"
   inkscape:export-filename="watering-can.svg"
   inkscape:export-xdpi="96"
   inkscape:export-ydpi="96"
   xmlns:inkscape="http://www.inkscape.org/namespaces/inkscape"
   xmlns:sodipodi="http://sodipodi.sourceforge.net/DTD/sodipodi-0.dtd"
   xmlns="http://www.w3.org/2000/svg"
   xmlns:svg="http://www.w3.org/2000/svg">
  <defs
     id="defs54696" />
  <sodipodi:namedview
     id="namedview54694"
     pagecolor="#505050"
     bordercolor="#eeeeee"
     borderopacity="1"
     inkscape:showpageshadow="0"
     inkscape:pageopacity="0"
     inkscape:pagecheckerboard="0"
     inkscape:deskcolor="#505050"
     showgrid="false" />
  <g
     inkscape:groupmode="layer"
     inkscape:label="Image"
     id="g54698">
    <g
       id="g55182"
       transform="translate(0.53177562,16.485034)">
      <path
         style="fill:#41c2e0;stroke-width:1.06667"
         d="m 153.06666,479.54887 c -8.764,-3.92812 -13.64491,-13.93587 -11.20889,-22.98257 1.63635,-6.07695 8.30087,-12.59863 13.76792,-13.47283 5.2002,-0.83156 5.37762,-1.41024 5.52661,-18.02683 0.0632,-7.04 0.4762,-17.36 0.91795,-22.93333 l 0.80318,-10.13333 -17.62675,-29.86667 C 135.55197,345.70665 112.63804,307.14879 94.326835,276.4492 L 61.033737,220.63175 44.297172,209.91734 c -15.190073,-9.72438 -16.979628,-10.60367 -19.367059,-9.51589 -3.690722,1.68161 -11.669159,1.49169 -15.2560273,-0.36315 -9.73785739,-5.03565 -12.6220462,-18.03685 -5.7998998,-26.14451 3.2124003,-3.81773 67.1083951,-47.59751 71.9117581,-49.27197 1.813029,-0.63202 5.379043,-0.9144 7.924474,-0.62749 13.542482,1.52643 19.959712,17.89203 11.011848,28.08308 l -3.266847,3.72074 3.422519,17.83424 c 1.882385,9.80885 3.855797,18.91684 4.38536,20.23999 0.900032,2.24878 19.624352,26.83951 60.561192,79.53526 9.61809,12.38084 17.47222,21.58478 17.7496,20.8 0.27363,-0.77421 2.45855,-9.80766 4.85536,-20.07432 6.33734,-27.14588 16.33678,-62.32179 25.09468,-88.27781 l 7.6549,-22.68706 -2.78952,-0.65503 c -4.97455,-1.1681 -10.23273,-4.67274 -12.94118,-8.62545 -2.11356,-3.08454 -2.64834,-5.18892 -2.64834,-10.42131 0,-7.85445 2.89165,-12.90737 9.58167,-16.74316 l 4.28499,-2.45684 86.68646,-0.53333 86.68646,-0.53334 5.13085,-11.88857 c 6.59711,-15.286054 10.43373,-21.1654 19.10483,-29.276789 11.0465,-10.333461 27.56513,-16.930926 42.39139,-16.930926 8.06723,0 19.33284,2.735912 27.77597,6.745538 8.67284,4.118712 19.86516,13.978015 25.06274,22.077744 4.01733,6.260473 36.46467,76.530953 39.621,85.806333 2.79448,8.21202 3.68646,21.94648 1.98873,30.622 -1.58674,8.1084 -7.21689,20.66421 -12.00512,26.77262 -3.41967,4.36252 -48.31743,57.83217 -52.12108,62.07204 -1.78526,1.99001 -1.80809,2.63499 -0.33983,9.6 6.34597,30.10356 11.58835,72.50065 13.40719,108.42899 l 1.27719,25.229 4.03877,0.64582 c 4.81695,0.77026 11.28065,6.09777 13.31999,10.97859 2.84085,6.79911 0.65778,17.22535 -4.58062,21.87691 -6.03706,5.36077 2.89992,5.11047 -180.87733,5.0656 -140.82531,-0.0344 -171.53175,-0.29463 -174.16758,-1.47602 z m 336.5559,-242.21555 c 10.07875,-11.73333 19.24001,-23.32983 20.35836,-25.77 2.80207,-6.11394 3.59485,-13.21385 2.12656,-19.04492 -2.23556,-8.87824 -35.45101,-79.60442 -39.47864,-84.06255 -11.9175,-13.191231 -32.67057,-13.025783 -44.12125,0.35175 -2.05239,2.39776 -4.69578,6.67958 -5.8742,9.51517 l -2.14257,5.15561 12.42124,0.4661 c 13.88782,0.52113 17.50437,1.77211 21.94162,7.58963 5.28301,6.92639 5.26791,16.9585 -0.036,23.91228 -2.90313,3.80622 -7.62833,6.68693 -10.96845,6.68693 -1.16785,0 -2.38355,0.42101 -2.70156,0.93557 -0.31802,0.51457 3.43071,13.11457 8.3305,27.99999 4.8998,14.88544 11.4687,36.54342 14.59755,48.12882 3.12885,11.58541 6.03376,20.70541 6.45535,20.26667 0.42158,-0.43874 9.01275,-10.39772 19.0915,-22.13105 z"
         id="path55190" />
      <path
         style="fill:#01a5c7;stroke-width:1.06667"
         d="m 153.59999,479.23034 c -9.69326,-3.64233 -14.61089,-16.51398 -9.86501,-25.82119 1.02576,-2.01162 3.7095,-5.13162 5.96388,-6.93334 l 4.09888,-3.27584 172.33799,-0.27942 172.33801,-0.27941 4.62234,2.23763 c 13.29201,6.43456 14.075,24.12739 1.44807,32.7212 l -3.52634,2.4 -172.9089,-0.0843 C 233.009,479.86944 154.47999,479.56101 153.59999,479.23034 Z M 149.17133,367.74859 C 55.206401,209.70005 62.5877,221.66153 56.38884,217.39342 53.241643,215.22647 45.514024,210.15526 39.216353,206.12406 l -11.450311,-7.32944 30.85259,-20.99732 c 16.968925,-11.54852 31.271649,-20.99731 31.783834,-20.99731 0.512183,0 2.528945,8.52 4.481691,18.93333 l 3.55045,18.93333 25.949443,33.6 c 14.27219,18.48 31.9521,41.28 39.28871,50.66667 7.33661,9.38666 13.35157,17.60397 13.36659,18.26069 0.015,0.65671 -1.14367,6.89671 -2.57486,13.86666 -3.2849,15.99756 -7.52071,43.45315 -9.68964,62.80597 -0.92049,8.21334 -1.7737,15.30021 -1.896,15.74861 -0.12231,0.4484 -6.29069,-9.3916 -13.70752,-21.86666 z m 168.88019,-51.46492 c -5.52375,-1.72382 -12.25549,-6.21162 -14.53427,-9.68949 -2.3921,-3.65081 -2.02885,-7.64625 0.96758,-10.64268 3.48874,-3.48874 6.78724,-3.29996 12.31573,0.70486 4.71093,3.41258 10.71543,4.89794 15.22466,3.76619 1.40475,-0.35256 4.37974,-2.09188 6.6111,-3.86513 4.76653,-3.78797 7.76052,-4.04908 11.61981,-1.01335 6.78096,5.3339 1.06935,15.39991 -11.36283,20.02563 -6.96699,2.59224 -14.04602,2.83475 -20.84178,0.71397 z m -64.90008,-6.42077 c -4.18216,-1.75846 -4.61812,-3.10817 -4.61812,-14.29755 0,-8.37006 0.25325,-9.56475 2.46874,-11.6461 3.27936,-3.0808 8.23943,-3.01467 11.21199,0.14948 2.01649,2.14646 2.31927,3.68735 2.31927,11.80345 0,5.13409 -0.46987,10.21268 -1.04415,11.28573 -1.62408,3.03462 -6.51199,4.3136 -10.33773,2.70499 z m 142.86569,0.43332 c -4.24979,-1.5721 -5.61715,-5.12174 -5.61715,-14.58206 0,-8.00361 0.25781,-9.13563 2.61818,-11.49599 5.10579,-5.1058 12.5591,-2.2217 13.99159,5.41412 1.14715,6.11488 0.0197,16.17075 -2.07211,18.48224 -2.19314,2.4234 -5.84966,3.31767 -8.92051,2.18169 z m 82.44269,-11.85058 c -0.29538,-1.34511 -2.22967,-9.68862 -4.29845,-18.54113 -2.06877,-8.85252 -3.7614,-16.94577 -3.7614,-17.98501 0,-1.44202 22.2015,-28.74748 25.62787,-31.51951 0.36257,-0.29334 3.60146,-4.05973 7.19753,-8.36975 8.04941,-9.64755 10.32074,-15.7261 9.58058,-25.63961 -0.47377,-6.3455 -2.25638,-10.80847 -17.67395,-44.24876 -9.43087,-20.4553 -18.35814,-39.02157 -19.83839,-41.25837 -3.09288,-4.67365 -9.97531,-9.7048 -15.93249,-11.646853 -6.08908,-1.985059 -16.37688,-0.998191 -22.23582,2.133003 -2.70699,1.44669 -6.71355,4.79034 -8.90347,7.43034 -3.60948,4.35133 -7.95519,12.55731 -7.95519,15.02177 0,0.53803 5.29541,0.97823 11.76759,0.97823 13.00672,0 16.90325,1.08786 21.49788,6.00196 5.14932,5.50734 6.55241,13.07309 3.69342,19.91563 -1.96912,4.71275 -8.33773,10.06534 -13.20275,11.09647 -2.21255,0.46893 -55.3828,0.85261 -118.15613,0.85261 H 211.73332 l -4.70551,-2.66667 c -5.66879,-3.21256 -8.45564,-6.75773 -9.71366,-12.35677 -1.81217,-8.06538 1.60238,-16.01713 8.664,-20.17656 3.52125,-2.07409 6.04497,-2.14815 90.87502,-2.66667 l 87.25317,-0.53333 4.91601,-11.73333 c 2.70381,-6.45334 7.1179,-15.05406 9.8091,-19.112722 8.16776,-12.317991 21.59695,-21.767962 36.61563,-25.766005 7.31361,-1.946916 23.24628,-1.914084 30.68622,0.06323 16.21213,4.30871 31.85752,16.281891 39.11553,29.934526 5.02287,9.448261 34.38647,73.702851 36.77885,80.480961 4.33891,12.29302 4.42039,28.33821 0.20835,41.02472 -3.60728,10.865 -6.99803,15.346 -50.20428,66.34682 -11.25776,13.28871 -13.1081,15.053 -13.57193,12.94077 z"
         id="path55188" />
      <path
         style="fill:#0094b2;stroke-width:1.06667"
         d="m 148.84273,366.95188 -13.79739,-22.91476 2.94526,-17.61857 c 3.36359,-20.1209 12.50049,-62.98365 13.4057,-62.88832 0.33203,0.035 6.23682,7.45551 13.12177,16.49006 l 12.51808,16.42648 -2.09104,10.16261 c -4.57663,22.24277 -9.14778,52.17682 -11.49233,75.25726 l -0.81265,8 z m 169.20879,-50.66821 c -5.52375,-1.72382 -12.25549,-6.21162 -14.53427,-9.68949 -2.3921,-3.65081 -2.02885,-7.64625 0.96758,-10.64268 3.48874,-3.48874 6.78724,-3.29996 12.31573,0.70486 4.71093,3.41258 10.71543,4.89794 15.22466,3.76619 1.40475,-0.35256 4.37974,-2.09188 6.6111,-3.86513 4.76653,-3.78797 7.76052,-4.04908 11.61981,-1.01335 6.78096,5.3339 1.06935,15.39991 -11.36283,20.02563 -6.96699,2.59224 -14.04602,2.83475 -20.84178,0.71397 z m -64.90008,-6.42077 c -4.18216,-1.75846 -4.61812,-3.10817 -4.61812,-14.29755 0,-8.37006 0.25325,-9.56475 2.46874,-11.6461 3.27936,-3.0808 8.23943,-3.01467 11.21199,0.14948 2.01649,2.14646 2.31927,3.68735 2.31927,11.80345 0,5.13409 -0.46987,10.21268 -1.04415,11.28573 -1.62408,3.03462 -6.51199,4.3136 -10.33773,2.70499 z m 142.86569,0.43332 c -4.24979,-1.5721 -5.61715,-5.12174 -5.61715,-14.58206 0,-8.00361 0.25781,-9.13563 2.61818,-11.49599 5.10579,-5.1058 12.5591,-2.2217 13.99159,5.41412 1.14715,6.11488 0.0197,16.17075 -2.07211,18.48224 -2.19314,2.4234 -5.84966,3.31767 -8.92051,2.18169 z m 82.90966,-11.12587 c -0.003,-0.57037 -1.92359,-9.16269 -4.26667,-19.09404 -2.34308,-9.93135 -4.26015,-18.41237 -4.26015,-18.84672 0,-1.68586 24.84165,-29.87652 25.59434,-29.0448 0.78294,0.86514 9.60566,34.16029 9.60566,36.24981 0,0.58565 -5.08411,7.02745 -11.29802,14.31511 -13.30734,15.60683 -15.36646,17.80595 -15.37516,16.42064 z M 45.333331,210.00702 c -8.213333,-5.32924 -15.333829,-10.06546 -15.823323,-10.52494 -0.489495,-0.45947 12.932856,-10.24456 29.827445,-21.74463 16.89459,-11.50008 31.031842,-20.55558 31.416115,-20.12335 0.925623,1.04116 7.957205,37.38953 7.331881,37.90071 -3.225218,2.63653 -36.025442,24.21371 -36.787447,24.20012 -0.567237,-0.0101 -7.751339,-4.37868 -15.964671,-9.70791 z M 385.06664,123.1325 c 0,-1.81475 9.0649,-22.06827 10.04031,-22.43287 0.63784,-0.2384 8.89333,0.64979 18.34558,1.97377 l 17.18588,2.40723 -3.52032,4.58568 c -1.93619,2.52213 -4.33504,6.71898 -5.3308,9.32634 l -1.81048,4.74068 h -17.45509 c -9.60029,0 -17.45508,-0.27037 -17.45508,-0.60083 z"
         id="path55186" />
      <path
         style="fill:#3a484a;stroke-width:1.06667"
         d="m 320.78342,316.7506 c -8.56867,-2.11378 -18.91677,-9.9569 -18.91677,-14.33754 0,-3.21363 2.56064,-6.88668 5.52026,-7.91841 3.47355,-1.21088 5.73702,-0.48541 11.43748,3.6659 5.02019,3.65589 13.58118,3.71868 17.89374,0.13124 4.6767,-3.89034 7.5334,-5.06985 10.48485,-4.32908 3.37296,0.84656 5.86367,4.26997 5.86367,8.05944 0,9.08577 -19.35738,17.91711 -32.28323,14.72845 z m -70.03935,-9.16114 c -1.83855,-2.33733 -2.21075,-4.32093 -2.21075,-11.78181 0,-8.10287 0.25344,-9.22474 2.61818,-11.58948 1.44,-1.44 3.86182,-2.61819 5.38182,-2.61819 1.52,0 3.94181,1.17819 5.38181,2.61819 2.38629,2.38628 2.61819,3.45629 2.61819,12.08072 0,8.51193 -0.24801,9.69556 -2.46875,11.78183 -3.49329,3.28177 -8.52437,3.06344 -11.3205,-0.49126 z m 142.23719,0.58284 c -1.49399,-1.65084 -2.11976,-4.28193 -2.41663,-10.16093 -0.45917,-9.09275 0.9043,-13.45065 4.75763,-15.20635 3.70277,-1.6871 5.0526,-1.52289 8.2672,1.00571 2.68116,2.10901 2.81052,2.67358 2.81052,12.26667 0,8.6337 -0.30172,10.35763 -2.13334,12.18925 -2.86645,2.86645 -8.64964,2.81811 -11.28538,-0.0944 z"
         id="path55184" />
    </g>
  </g>
</svg>
